HIERARCHY
ROOT Hips
{
	OFFSET 0.000000 71.427986 0.000000
	CHANNELS 6 Xposition Yposition Zposition Xrotation Yrotation Zrotation
	JOINT Pelvis
	{
		OFFSET 0.000000 0.000000 0.000000
		CHANNELS 3 Xrotation Yrotation Zrotation
		JOINT LeftUpLeg
		{
			OFFSET 6.797100 -2.508499 -1.318700
			CHANNELS 3 Xrotation Yrotation Zrotation
			JOINT LeftLeg
			{
				OFFSET 0.069008 -29.241863 0.690200
				CHANNELS 3 Xrotation Yrotation Zrotation
				JOINT LeftFoot
				{
					OFFSET -0.069008 -29.568123 -0.266800
					CHANNELS 3 Xrotation Yrotation Zrotation
					JOINT LeftToeBase
					{
						OFFSET 3.145500 -8.631000 16.059900
						CHANNELS 3 Xrotation Yrotation Zrotation
						End Site
						{
							OFFSET 0.000000 18.501587 0.000000
						}
					}
				}
			}
			JOINT Left_ShortSleeve
			{
				OFFSET 0.265923 -10.480953 1.153800
				CHANNELS 3 Xrotation Yrotation Zrotation
				End Site
				{
					OFFSET 1.725763 19.823879 0.000000
				}
			}
		}
		JOINT RightUpLeg
		{
			OFFSET -6.797100 -2.508499 -1.318700
			CHANNELS 3 Xrotation Yrotation Zrotation
			JOINT RightLeg
			{
				OFFSET -0.082453 -29.241932 0.688000
				CHANNELS 3 Xrotation Yrotation Zrotation
				JOINT RightFoot
				{
					OFFSET 0.082453 -29.568058 -0.264600
					CHANNELS 3 Xrotation Yrotation Zrotation
					JOINT RightToeBase
					{
						OFFSET -3.115300 -8.682800 16.113400
						CHANNELS 3 Xrotation Yrotation Zrotation
						End Site
						{
							OFFSET 0.000000 18.567114 0.000000
						}
					}
				}
			}
			JOINT Right_ShortSleeve
			{
				OFFSET -0.265923 -10.480953 1.153800
				CHANNELS 3 Xrotation Yrotation Zrotation
				End Site
				{
					OFFSET -1.725766 19.823910 0.000000
				}
			}
		}
	}
	JOINT Spine
	{
		OFFSET 0.000000 13.368103 0.470500
		CHANNELS 3 Xrotation Yrotation Zrotation
		JOINT Spine1
		{
			OFFSET 0.147000 13.837402 0.538800
			CHANNELS 3 Xrotation Yrotation Zrotation
			JOINT Spine2
			{
				OFFSET 0.168000 16.242897 -1.435500
				CHANNELS 3 Xrotation Yrotation Zrotation
				JOINT Neck
				{
					OFFSET 0.217200 18.631500 -1.679100
					CHANNELS 3 Xrotation Yrotation Zrotation
					JOINT Head
					{
						OFFSET 0.000000 6.599396 1.385900
						CHANNELS 3 Xrotation Yrotation Zrotation
						JOINT Hat
						{
							OFFSET -0.532200 27.220596 -10.096100
							CHANNELS 3 Xrotation Yrotation Zrotation
							End Site
							{
								OFFSET 0.000000 22.029861 0.000000
							}
						}
						JOINT HairD
						{
							OFFSET -10.777400 17.437393 -1.325900
							CHANNELS 3 Xrotation Yrotation Zrotation
							JOINT HairD1
							{
								OFFSET -3.290299 -11.051193 1.062200
								CHANNELS 3 Xrotation Yrotation Zrotation
								End Site
								{
									OFFSET 0.000000 11.579437 0.000000
								}
							}
						}
						JOINT HairB
						{
							OFFSET -10.777400 17.437393 1.467900
							CHANNELS 3 Xrotation Yrotation Zrotation
							JOINT HairB1
							{
								OFFSET -1.561200 -12.956299 3.590200
								CHANNELS 3 Xrotation Yrotation Zrotation
								End Site
								{
									OFFSET 0.000000 13.534866 0.000000
								}
							}
						}
						JOINT HairA
						{
							OFFSET 9.713100 17.437393 1.467900
							CHANNELS 3 Xrotation Yrotation Zrotation
							JOINT HairA1
							{
								OFFSET 1.561200 -12.956299 3.590200
								CHANNELS 3 Xrotation Yrotation Zrotation
								End Site
								{
									OFFSET 0.000000 13.534866 0.000000
								}
							}
						}
						JOINT HairC
						{
							OFFSET 9.713100 17.437393 -1.325900
							CHANNELS 3 Xrotation Yrotation Zrotation
							JOINT HairC1
							{
								OFFSET 3.290300 -11.051193 1.062200
								CHANNELS 3 Xrotation Yrotation Zrotation
								End Site
								{
									OFFSET 0.000000 11.579437 0.000000
								}
							}
						}
					}
				}
				JOINT LeftShoulder
				{
					OFFSET 5.101800 15.108002 -2.763700
					CHANNELS 3 Xrotation Yrotation Zrotation
					JOINT LeftArm
					{
						OFFSET 9.825497 2.506317 -1.597400
						CHANNELS 3 Xrotation Yrotation Zrotation
						JOINT LeftForeArm
						{
							OFFSET 21.966244 0.000000 0.000000
							CHANNELS 3 Xrotation Yrotation Zrotation
							JOINT LeftHand
							{
								OFFSET 33.879036 0.000000 0.000000
								CHANNELS 3 Xrotation Yrotation Zrotation
								JOINT LeftHandThumb1
								{
									OFFSET 6.715286 -2.359680 3.363841
									CHANNELS 3 Xrotation Yrotation Zrotation
									JOINT LeftHandThumb2
									{
										OFFSET 2.507072 -1.447464 1.447461
										CHANNELS 3 Xrotation Yrotation Zrotation
										JOINT LeftHandThumb3
										{
											OFFSET 2.898338 -1.673355 1.673357
											CHANNELS 3 Xrotation Yrotation Zrotation
											End Site
											{
												OFFSET -0.295959 3.727692 -0.131651
											}
										}
									}
								}
								JOINT LeftHandIndex1
								{
									OFFSET 14.190811 -0.254547 3.840278
									CHANNELS 3 Xrotation Yrotation Zrotation
									JOINT LeftHandIndex2
									{
										OFFSET 3.551727 0.000000 -0.000000
										CHANNELS 3 Xrotation Yrotation Zrotation
										JOINT LeftHandIndex3
										{
											OFFSET 2.894196 0.000000 0.000000
											CHANNELS 3 Xrotation Yrotation Zrotation
											End Site
											{
												OFFSET -1.000603 2.690872 0.366626
											}
										}
									}
								}
								JOINT LeftHandMiddle1
								{
									OFFSET 13.776489 0.000000 0.000000
									CHANNELS 3 Xrotation Yrotation Zrotation
									JOINT LeftHandMiddle2
									{
										OFFSET 3.438232 0.000000 0.000000
										CHANNELS 3 Xrotation Yrotation Zrotation
										JOINT LeftHandMiddle3
										{
											OFFSET 3.691551 0.000000 0.000000
											CHANNELS 3 Xrotation Yrotation Zrotation
											End Site
											{
												OFFSET -1.082298 3.499527 0.457670
											}
										}
									}
								}
								JOINT LeftHandRing1
								{
									OFFSET 13.966164 -0.268127 -3.067488
									CHANNELS 3 Xrotation Yrotation Zrotation
									JOINT LeftHandRing2
									{
										OFFSET 3.162567 0.000000 0.000000
										CHANNELS 3 Xrotation Yrotation Zrotation
										JOINT LeftHandRing3
										{
											OFFSET 3.324348 0.000000 0.000000
											CHANNELS 3 Xrotation Yrotation Zrotation
											End Site
											{
												OFFSET -0.861900 3.184998 0.405154
											}
										}
									}
								}
								JOINT LeftHandPinky1
								{
									OFFSET 13.131393 -0.168503 -5.746925
									CHANNELS 3 Xrotation Yrotation Zrotation
									JOINT LeftHandPinky2
									{
										OFFSET 2.849182 0.000000 0.000000
										CHANNELS 3 Xrotation Yrotation Zrotation
										JOINT LeftHandPinky3
										{
											OFFSET 2.805038 0.000000 0.000000
											CHANNELS 3 Xrotation Yrotation Zrotation
											End Site
											{
												OFFSET -0.882500 2.642609 0.325652
											}
										}
									}
								}
							}
							JOINT Left_Sleeve
							{
								OFFSET 6.592125 -0.646545 0.805568
								CHANNELS 3 Xrotation Yrotation Zrotation
								End Site
								{
									OFFSET -0.000179 20.275787 -0.000000
								}
							}
						}
					}
				}
				JOINT RightShoulder
				{
					OFFSET -5.731700 15.108002 -2.763700
					CHANNELS 3 Xrotation Yrotation Zrotation
					JOINT RightArm
					{
						OFFSET -9.825497 2.506317 -1.597400
						CHANNELS 3 Xrotation Yrotation Zrotation
						JOINT RightForeArm
						{
							OFFSET -21.966242 0.000000 0.000000
							CHANNELS 3 Xrotation Yrotation Zrotation
							JOINT RightHand
							{
								OFFSET -33.879032 0.000000 0.000000
								CHANNELS 3 Xrotation Yrotation Zrotation
								JOINT RightHandThumb1
								{
									OFFSET -6.715286 -2.359680 3.363841
									CHANNELS 3 Xrotation Yrotation Zrotation
									JOINT RightHandThumb2
									{
										OFFSET -2.507072 -1.447464 1.447461
										CHANNELS 3 Xrotation Yrotation Zrotation
										JOINT RightHandThumb3
										{
											OFFSET -2.898338 -1.673355 1.673357
											CHANNELS 3 Xrotation Yrotation Zrotation
											End Site
											{
												OFFSET 0.295959 3.727692 -0.131651
											}
										}
									}
								}
								JOINT RightHandIndex1
								{
									OFFSET -14.190811 -0.254547 3.840278
									CHANNELS 3 Xrotation Yrotation Zrotation
									JOINT RightHandIndex2
									{
										OFFSET -3.551727 0.000000 -0.000000
										CHANNELS 3 Xrotation Yrotation Zrotation
										JOINT RightHandIndex3
										{
											OFFSET -2.894196 0.000000 0.000000
											CHANNELS 3 Xrotation Yrotation Zrotation
											End Site
											{
												OFFSET 1.000603 2.690872 0.366626
											}
										}
									}
								}
								JOINT RightHandMiddle1
								{
									OFFSET -13.776489 0.000000 0.000000
									CHANNELS 3 Xrotation Yrotation Zrotation
									JOINT RightHandMiddle2
									{
										OFFSET -3.438232 0.000000 0.000000
										CHANNELS 3 Xrotation Yrotation Zrotation
										JOINT RightHandMiddle3
										{
											OFFSET -3.691551 0.000000 0.000000
											CHANNELS 3 Xrotation Yrotation Zrotation
											End Site
											{
												OFFSET 1.082298 3.499527 0.457670
											}
										}
									}
								}
								JOINT RightHandRing1
								{
									OFFSET -13.966164 -0.268127 -3.067488
									CHANNELS 3 Xrotation Yrotation Zrotation
									JOINT RightHandRing2
									{
										OFFSET -3.162567 0.000000 0.000000
										CHANNELS 3 Xrotation Yrotation Zrotation
										JOINT RightHandRing3
										{
											OFFSET -3.324348 0.000000 0.000000
											CHANNELS 3 Xrotation Yrotation Zrotation
											End Site
											{
												OFFSET 0.861900 3.184998 0.405154
											}
										}
									}
								}
								JOINT RightHandPinky1
								{
									OFFSET -13.131393 -0.168503 -5.746925
									CHANNELS 3 Xrotation Yrotation Zrotation
									JOINT RightHandPinky2
									{
										OFFSET -2.849182 0.000000 0.000000
										CHANNELS 3 Xrotation Yrotation Zrotation
										JOINT RightHandPinky3
										{
											OFFSET -2.805038 0.000000 0.000000
											CHANNELS 3 Xrotation Yrotation Zrotation
											End Site
											{
												OFFSET 0.882500 2.642609 0.325652
											}
										}
									}
								}
							}
							JOINT Right_Sleeve
							{
								OFFSET -6.592125 -0.646545 0.805568
								CHANNELS 3 Xrotation Yrotation Zrotation
								End Site
								{
									OFFSET 0.000179 20.275787 -0.000000
								}
							}
						}
					}
				}
				JOINT Bind_Right_JacketString
				{
					OFFSET -3.534800 11.969597 7.200700
					CHANNELS 3 Xrotation Yrotation Zrotation
					JOINT Bind_Right_JacketString1
					{
						OFFSET -0.319900 -6.102600 2.794100
						CHANNELS 3 Xrotation Yrotation Zrotation
						End Site
						{
							OFFSET 0.000000 6.719452 0.000000
						}
					}
				}
				JOINT Bind_Left_JacketString
				{
					OFFSET 2.904800 11.969597 7.200700
					CHANNELS 3 Xrotation Yrotation Zrotation
					JOINT Bind_Left_JacketString1
					{
						OFFSET 0.364800 -5.904503 3.186800
						CHANNELS 3 Xrotation Yrotation Zrotation
						End Site
						{
							OFFSET 0.000000 6.719513 0.000000
						}
					}
				}
				JOINT HairE
				{
					OFFSET 5.915200 17.612701 -11.592200
					CHANNELS 3 Xrotation Yrotation Zrotation
					JOINT HairE1
					{
						OFFSET 0.289200 -7.171898 -1.284500
						CHANNELS 3 Xrotation Yrotation Zrotation
						End Site
						{
							OFFSET 0.000000 7.291756 0.000000
						}
					}
				}
				JOINT HairF
				{
					OFFSET -0.864800 17.612701 -11.592200
					CHANNELS 3 Xrotation Yrotation Zrotation
					JOINT HairF1
					{
						OFFSET 0.000000 -14.087097 -2.127501
						CHANNELS 3 Xrotation Yrotation Zrotation
						End Site
						{
							OFFSET 0.000000 14.246841 0.000000
						}
					}
				}
				JOINT HairG
				{
					OFFSET -8.087700 17.612701 -11.592200
					CHANNELS 3 Xrotation Yrotation Zrotation
					JOINT HairG1
					{
						OFFSET -0.293600 -6.081398 -0.910100
						CHANNELS 3 Xrotation Yrotation Zrotation
						End Site
						{
							OFFSET 0.000000 6.156120 0.000000
						}
					}
				}
			}
		}
	}
	JOINT Pouch
	{
		OFFSET 0.000000 4.394501 10.847300
		CHANNELS 3 Xrotation Yrotation Zrotation
		End Site
		{
			OFFSET 0.000000 21.880577 0.000000
		}
	}
	JOINT Bag
	{
		OFFSET -13.229000 4.813004 -0.593300
		CHANNELS 3 Xrotation Yrotation Zrotation
		End Site
		{
			OFFSET 0.000000 21.880577 0.000000
		}
	}
	JOINT OccupyGuyFacialAnim_Joint
	{
		OFFSET 1.000000 -70.206398 -1.655000
		CHANNELS 3 Xrotation Yrotation Zrotation
		End Site
		{
			OFFSET 0.000000 21.880577 0.000000
		}
	}
}
MOTION
Frames: 4
Frame Time: 0.016667
-2.765306 61.817326 57.043461 31.836294 13.849920 -6.699094 0.000001 -0.000000 0.000000 -11.616743 8.670397 1.936998 29.938997 22.006548 1.200844 -28.309802 2.898375 -25.028407 -0.000001 0.000001 0.000000 0.000001 0.000001 -0.000001 -71.601843 -10.176266 -1.181437 69.047004 -31.880407 -1.742046 -21.385766 -1.071971 2.771471 -0.000000 -0.000000 0.000000 0.000001 -0.000001 -0.000002 4.720949 -0.117435 1.697437 9.441416 0.085016 4.172058 9.441393 0.085011 4.172061 -7.147123 0.629938 -0.577765 -4.884830 0.126164 2.445928 0.000001 0.000000 -0.000000 0.000001 0.000000 -0.000000 0.000001 0.000000 -0.000000 0.000001 0.000000 -0.000000 -0.000001 0.000000 -0.000000 0.000001 0.000000 -0.000000 -0.000001 0.000000 -0.000000 0.000001 0.000000 -0.000000 0.000001 0.000000 -0.000000 3.345520 -20.374552 5.851154 -45.404157 -21.632024 -43.071750 105.129568 -62.566206 117.849778 32.351693 22.518562 68.310525 -22.329912 -10.232714 -0.665760 -13.008723 33.638808 5.466834 -0.000001 -0.000000 0.000005 -3.249112 -3.487648 -45.487704 -11.741070 -5.662333 -117.786312 0.000001 0.000001 -0.000002 -1.607300 -1.437531 -44.852845 -8.864440 -8.229471 -108.221629 0.000004 -0.000000 -0.000001 1.621460 4.447376 -42.845244 -1.055320 -8.990363 -99.406293 0.000001 -0.000000 -0.000003 2.581075 6.861464 -50.366389 0.502840 -8.788551 -83.370286 -0.000001 0.000002 0.000001 0.000000 -0.000000 0.000001 1.512613 10.066765 -3.702968 -39.856859 5.966722 40.669760 110.736662 51.476745 -131.206090 41.008551 -31.696090 -49.398790 -31.480567 10.386597 -14.209263 -13.008654 -33.638829 -5.466782 0.000001 0.000000 0.000001 -3.485979 1.851559 32.874431 -8.875865 5.007769 106.188138 -0.000001 -0.000001 0.000002 -2.051659 0.230812 37.937104 -6.364969 7.372373 96.576880 0.000001 0.000001 0.000001 2.774048 -3.553457 41.587034 -1.339015 10.439934 83.973139 -0.000000 0.000001 0.000002 4.714836 -4.516895 49.238786 -1.408706 11.737767 71.641963 0.000001 0.000000 -0.000005 0.000003 0.000002 0.000001 -0.000002 0.000000 0.000000 -0.000000 0.000000 0.000000 -0.000002 0.000000 0.000000 -0.000002 0.000000 0.000000 -0.000002 0.000000 0.000000 -0.000000 0.000000 0.000000 -0.000002 0.000000 0.000000 -0.000002 0.000000 0.000000 -0.000002 0.000000 0.000000 -0.000000 0.000000 0.000000 0.000001 -0.000000 0.000000 0.000001 -0.000000 0.000000 0.000001 -0.000000 0.000000 
-2.796570 61.721851 57.188850 32.044666 13.854223 -6.741428 0.000001 0.000000 0.000000 -11.882193 8.656266 2.045432 30.345007 22.034148 1.202330 -28.356978 2.879053 -25.291706 0.000001 0.000002 -0.000001 -0.000001 -0.000001 -0.000000 -71.927349 -10.288276 -1.208204 69.527610 -31.890696 -1.740264 -21.605072 -1.077727 2.749843 -0.000001 -0.000001 0.000001 -0.000001 -0.000000 -0.000000 4.639987 -0.118647 1.696708 9.279509 0.081828 4.174584 9.279508 0.081824 4.174586 -7.203880 0.623598 -0.573727 -4.979428 0.067747 2.427052 0.000003 0.000001 -0.000000 0.000003 0.000001 -0.000000 0.000003 0.000001 0.000000 0.000003 0.000001 0.000000 0.000003 0.000000 -0.000000 0.000003 0.000001 0.000000 0.000003 0.000000 -0.000000 0.000003 0.000001 -0.000000 0.000003 0.000001 -0.000000 3.403891 -20.465912 6.046226 -45.550757 -21.701381 -42.949240 104.319330 -62.881098 117.063186 32.170724 22.449025 68.336261 -22.329919 -10.232738 -0.665771 -13.008745 33.638808 5.466827 0.000005 -0.000002 0.000000 -3.249110 -3.487666 -45.487694 -11.741083 -5.662337 -117.786312 -0.000000 0.000000 -0.000002 -1.607304 -1.437556 -44.852828 -8.864473 -8.229479 -108.221643 0.000005 0.000000 -0.000001 1.621478 4.447356 -42.845230 -1.055311 -8.990350 -99.406320 -0.000002 0.000001 -0.000001 2.581070 6.861436 -50.366385 0.502839 -8.788562 -83.370266 -0.000000 -0.000002 0.000003 0.000000 0.000001 0.000001 1.519939 10.005076 -3.875171 -40.127276 6.219991 40.746750 110.235264 51.780491 -130.620879 41.065802 -31.594010 -49.231969 -31.480567 10.386606 -14.209242 -13.008681 -33.638859 -5.466809 0.000002 0.000001 0.000002 -3.485977 1.851576 32.874438 -8.875878 5.007770 106.188166 0.000000 -0.000000 0.000000 -2.051661 0.230812 37.937111 -6.364967 7.372384 96.576901 -0.000000 0.000000 0.000001 2.774037 -3.553445 41.587058 -1.339043 10.439949 83.973153 -0.000001 0.000001 0.000009 4.714836 -4.516883 49.238796 -1.408718 11.737759 71.642004 -0.000000 0.000001 -0.000003 -0.000001 -0.000003 0.000001 -0.000002 -0.000000 0.000001 -0.000005 -0.000000 -0.000000 -0.000002 -0.000000 0.000001 -0.000002 -0.000000 0.000001 -0.000002 -0.000000 0.000001 -0.000005 -0.000000 -0.000000 -0.000002 -0.000000 0.000001 -0.000002 -0.000000 0.000001 -0.000002 -0.000000 0.000001 -0.000005 -0.000000 -0.000000 0.000001 0.000000 0.000000 0.000001 0.000000 0.000000 0.000001 0.000000 0.000000 
-2.825246 61.627480 57.331997 32.259462 13.863747 -6.786991 -0.000001 -0.000001 0.000001 -12.154931 8.641238 2.152604 30.748193 22.062491 1.203463 -28.396990 2.859327 -25.554985 -0.000000 0.000003 -0.000000 -0.000001 0.000002 -0.000000 -72.249591 -10.403275 -1.245076 69.991551 -31.891806 -1.737761 -21.824968 -1.086613 2.735855 -0.000001 -0.000000 0.000001 0.000002 0.000001 -0.000003 4.558096 -0.119797 1.697922 9.115780 0.078890 4.180705 9.115792 0.078889 4.180705 -7.260799 0.622990 -0.571327 -5.077518 0.011021 2.406297 -0.000003 0.000000 -0.000000 -0.000003 0.000000 -0.000000 -0.000003 0.000000 0.000000 -0.000003 0.000000 0.000000 0.000001 0.000000 0.000000 -0.000003 0.000000 0.000000 0.000001 0.000000 0.000000 -0.000003 0.000000 -0.000000 -0.000003 0.000000 -0.000000 3.462223 -20.556776 6.238193 -45.726153 -21.783003 -42.867275 103.432444 -63.200382 116.209112 32.017956 22.348613 68.350734 -22.329915 -10.232735 -0.665767 -13.008732 33.638808 5.466836 -0.000002 -0.000002 0.000001 -3.249102 -3.487653 -45.487707 -11.741074 -5.662344 -117.786312 -0.000000 0.000000 -0.000002 -1.607304 -1.437548 -44.852828 -8.864471 -8.229478 -108.221608 0.000003 0.000001 -0.000001 1.621460 4.447359 -42.845240 -1.055308 -8.990346 -99.406286 0.000001 0.000002 -0.000001 2.581068 6.861454 -50.366385 0.502842 -8.788540 -83.370286 -0.000001 -0.000000 -0.000006 0.000000 -0.000005 -0.000001 1.527260 9.940858 -4.054028 -40.408390 6.474593 40.823634 109.704040 52.094993 -130.008157 41.123825 -31.479563 -49.070012 -31.480547 10.386579 -14.209246 -13.008678 -33.638825 -5.466787 0.000001 0.000000 0.000000 -3.485962 1.851561 32.874428 -8.875891 5.007779 106.188166 -0.000001 0.000000 0.000004 -2.051657 0.230814 37.937104 -6.364980 7.372381 96.576887 0.000001 -0.000000 -0.000001 2.774063 -3.553469 41.587055 -1.339029 10.439965 83.973139 0.000001 -0.000001 -0.000001 4.714839 -4.516901 49.238789 -1.408706 11.737765 71.641963 -0.000000 0.000000 -0.000003 -0.000002 -0.000002 0.000002 -0.000003 0.000000 -0.000000 -0.000003 0.000000 -0.000000 -0.000003 0.000000 -0.000001 -0.000003 0.000000 -0.000001 -0.000003 0.000000 -0.000000 -0.000003 0.000000 -0.000000 -0.000003 0.000000 -0.000001 -0.000003 0.000000 -0.000001 -0.000003 0.000000 -0.000000 -0.000003 0.000000 -0.000000 -0.000001 -0.000001 0.000001 -0.000001 -0.000001 0.000001 -0.000001 -0.000001 0.000001 
-2.851538 61.533173 57.474808 32.476586 13.872697 -6.832487 -0.000000 -0.000000 -0.000000 -12.427798 8.625724 2.256989 31.148221 22.091765 1.204293 -28.431685 2.839739 -25.818079 0.000001 0.000001 -0.000000 0.000001 -0.000000 -0.000000 -72.567468 -10.519132 -1.290585 70.448723 -31.869683 -1.733607 -22.047299 -1.097805 2.727284 -0.000000 0.000000 0.000001 0.000000 0.000001 -0.000001 4.475712 -0.121364 1.699019 8.951170 0.075007 4.186375 8.951169 0.075007 4.186379 -7.318556 0.628101 -0.570277 -5.178903 -0.043944 2.385304 -0.000003 -0.000000 -0.000000 -0.000003 -0.000000 -0.000000 -0.000003 -0.000000 0.000000 -0.000003 -0.000000 0.000000 -0.000003 0.000000 0.000000 -0.000003 -0.000000 0.000000 -0.000003 0.000000 0.000000 -0.000003 -0.000000 -0.000000 -0.000003 -0.000000 -0.000000 3.520937 -20.647262 6.429787 -45.923081 -21.869200 -42.821676 102.479257 -63.518335 115.301216 31.897298 22.218558 68.346479 -22.329919 -10.232738 -0.665757 -13.008740 33.638808 5.466851 -0.000001 -0.000000 0.000004 -3.249098 -3.487652 -45.487697 -11.741066 -5.662328 -117.786312 -0.000001 0.000001 -0.000004 -1.607298 -1.437543 -44.852831 -8.864477 -8.229471 -108.221649 -0.000001 0.000001 -0.000001 1.621465 4.447371 -42.845234 -1.055304 -8.990360 -99.406307 0.000000 0.000001 -0.000002 2.581073 6.861462 -50.366358 0.502849 -8.788556 -83.370300 -0.000001 -0.000001 -0.000003 -0.000002 0.000002 0.000002 1.534755 9.876781 -4.238348 -40.697044 6.729569 40.910425 109.140727 52.419024 -129.364138 41.180522 -31.352071 -48.919707 -31.480550 10.386596 -14.209239 -13.008678 -33.638859 -5.466820 0.000000 0.000001 -0.000000 -3.485973 1.851576 32.874431 -8.875879 5.007776 106.188138 -0.000001 -0.000000 -0.000002 -2.051661 0.230811 37.937104 -6.364969 7.372385 96.576901 0.000000 -0.000000 -0.000001 2.774046 -3.553446 41.587045 -1.339031 10.439948 83.973146 0.000001 0.000000 0.000001 4.714839 -4.516886 49.238786 -1.408722 11.737769 71.641970 -0.000001 0.000001 0.000002 -0.000000 -0.000003 0.000001 -0.000000 -0.000001 -0.000000 -0.000000 -0.000001 -0.000000 -0.000000 -0.000001 -0.000000 -0.000000 -0.000001 -0.000000 -0.000000 -0.000001 -0.000000 -0.000000 -0.000001 -0.000000 -0.000000 -0.000001 -0.000000 -0.000000 -0.000001 -0.000000 -0.000000 -0.000001 -0.000000 -0.000000 -0.000001 -0.000000 -0.000000 -0.000000 -0.000000 -0.000000 -0.000000 -0.000000 -0.000000 -0.000000 -0.000000 
